<?xml version="1.0" encoding="UTF-8"?>
<svg width="732px" height="333px" viewBox="0 0 732 333" version="1.1" xmlns="http://www.w3.org/2000/svg" xmlns:xlink="http://www.w3.org/1999/xlink">
    <!-- Generator: Sketch 52.5 (67469) - http://www.bohemiancoding.com/sketch -->
    <title>logo1 (1)</title>
    <desc>Created with Sketch.</desc>
    <g id="Page-1" stroke="none" stroke-width="1" fill="none" fill-rule="evenodd">
        <g id="logo1-(1)" fill="#000000">
            <path d="M164.092488,328 C155.584391,328 147.019384,327.33719 138.45082,325.993754 C95.2487532,319.223117 57.261097,296.003399 31.4913808,260.614352 C5.71810773,225.221742 -4.753396,181.893234 2.00115073,138.611051 C8.75569746,95.3288682 31.932436,57.2707656 67.2595335,31.4532607 C140.183029,-21.8494638 242.79594,-5.76742102 296,67.2913072 L280.566625,78.5661983 C233.56935,14.0313447 142.936067,-0.169173915 78.5171114,46.9116922 C47.3124571,69.7180458 26.8425169,103.336036 20.8740443,141.565187 C14.9055718,179.7979 24.1570599,218.069812 46.9211985,249.332334 C69.685337,280.594856 103.2411,301.102757 141.399487,307.082298 C179.564988,313.058275 217.762501,303.793194 248.967156,280.98684 L260.224734,296.448835 C231.904722,317.149165 198.491235,328 164.092488,328 Z" id="Path"/>
            <polygon id="Path" points="221 266.014388 292 266 258.886392 333"/>
            <g id="Group" transform="translate(93.000000, 76.000000)">
                <polygon id="Path" points="0.338189415 0.351166667 30.7431978 0.351166667 30.7431978 168.800083 0.338189415 168.800083 0.338189415 0.351166667"/>
                <path d="M53.3662897,47.8016667 L82.1230696,47.8016667 L82.1230696,61.7981667 C82.1230696,66.306 81.6531643,70.10075 81.6531643,70.10075 L82.1230696,70.10075 C87.3098273,59.899 100.506334,44.9529167 124.784774,44.9529167 C151.419861,44.9529167 166.503109,58.9494167 166.503109,90.9808333 L166.503109,168.800083 L136.806518,168.800083 L136.806518,97.1513333 C136.806518,82.44175 133.036596,72.4765 117.714836,72.4765 C101.688217,72.4765 89.9014262,82.67825 85.4230864,97.1513333 C83.7748579,102.132167 83.3013928,107.589583 83.3013928,113.2835 L83.3013928,168.800083 L53.3662897,168.800083 L53.3662897,47.8016667 Z" id="Path"/>
                <path d="M186.299649,132.737417 C186.299649,132.737417 199.499716,146.024417 219.061304,146.024417 C227.548078,146.024417 234.852969,142.229667 234.852969,135.109583 C234.852969,117.07825 176.399599,119.450417 176.399599,80.5425833 C176.399599,58.0034167 196.434652,44.9565 222.36132,44.9565 C249.466312,44.9565 262.666379,58.7165 262.666379,58.7165 L251.588006,81.0191667 C251.588006,81.0191667 240.509632,70.5809167 222.126368,70.5809167 C214.348011,70.5809167 206.804607,73.9026667 206.804607,81.49575 C206.804607,98.5775 265.257978,96.4418333 265.257978,135.349667 C265.257978,155.516667 247.818084,171.648833 219.296256,171.648833 C189.361153,171.648833 172.629677,153.854 172.629677,153.854 L186.299649,132.737417 Z" id="Path"/>
                <path d="M274.211097,0.351166667 L303.907688,0.351166667 L303.907688,27.1616667 L274.211097,27.1616667 L274.211097,0.351166667 Z M274.211097,47.8016667 L304.146201,47.8016667 L304.146201,168.800083 L274.211097,168.800083 L274.211097,47.8016667 Z" id="Shape" fill-rule="nonzero"/>
                <path d="M368.252674,44.9565 C394.649248,44.9565 402.90107,60.3791667 402.90107,60.3791667 L403.370975,60.3791667 C403.370975,60.3791667 403.136022,57.2939167 403.136022,53.4991667 L403.136022,0.351166667 L433.071125,0.351166667 L433.071125,168.800083 L404.787811,168.800083 L404.787811,158.834833 C404.787811,154.327 405.257716,151.00525 405.257716,151.00525 L404.787811,151.00525 C404.787811,151.00525 394.652808,171.64525 367.077911,171.64525 C334.551209,171.64525 313.811298,145.784333 313.811298,108.299083 C313.807738,69.86425 336.43439,44.9565 368.252674,44.9565 Z M373.909337,146.260917 C389.46605,146.260917 404.079393,134.873083 404.079393,108.062583 C404.079393,89.32175 394.179343,70.8138333 374.14429,70.8138333 C357.644206,70.8138333 343.974234,84.3373333 343.974234,108.299083 C343.977794,131.314833 356.23449,146.260917 373.909337,146.260917 Z" id="Shape" fill-rule="nonzero"/>
                <path d="M503.54268,44.9565 C538.191075,44.9565 556.809292,70.3408333 556.809292,102.37225 C556.809292,105.9305 556.100875,113.996583 556.100875,113.996583 L473.134111,113.996583 C475.020852,135.113167 491.282423,146.024417 509.195783,146.024417 C528.522418,146.024417 543.844178,132.737417 543.844178,132.737417 L555.392457,154.327 C555.392457,154.327 537.009192,171.64525 507.074089,171.64525 C467.242496,171.64525 442.49415,142.699083 442.49415,108.299083 C442.49771,71.0539167 467.715961,44.9565 503.54268,44.9565 Z M526.639237,93.353 C526.169331,76.9843333 516.034329,68.2051667 502.834262,68.2051667 C487.512501,68.2051667 476.907593,77.6938333 474.081042,93.353 L526.639237,93.353 Z" id="Shape" fill-rule="nonzero"/>
                <path d="M566.47083,47.8016667 L595.22405,47.8016667 L595.22405,68.6781667 C595.22405,73.186 594.754145,77.2208333 594.754145,77.2208333 L595.22405,77.2208333 C600.64576,59.9025833 615.02415,46.1425833 633.407415,46.1425833 C636.237526,46.1425833 638.829125,46.6155833 638.829125,46.6155833 L638.829125,76.27125 C638.829125,76.27125 635.764061,75.79825 631.759187,75.79825 C619.032585,75.79825 604.654195,83.15125 598.997532,101.182583 C597.110791,107.113 596.405933,113.7565 596.405933,120.873 L596.405933,168.7965 L566.47439,168.7965 L566.47439,47.8016667 L566.47083,47.8016667 Z" id="Path"/>
            </g>
        </g>
    </g>
</svg>